<?xml version="1.0" encoding="UTF-8"?>
<svg xmlns="http://www.w3.org/2000/svg" xmlns:xlink="http://www.w3.org/1999/xlink" width="24px" height="37px" viewBox="0 0 24 36" version="1.1">
<g id="surface1">
<path style=" stroke:none;fill-rule:nonzero;fill:rgb(93.725491%,32.235296%,0%);fill-opacity:1;" d="M 12.027344 35.464844 C 12.027344 35.472656 12.039062 35.484375 12.039062 35.484375 C 12.039062 35.484375 23.558594 18.191406 23.558594 12.511719 C 23.558594 4.144531 17.71875 0.507812 12.027344 0.496094 C 6.332031 0.507812 0.492188 4.144531 0.492188 12.511719 C 0.492188 18.191406 12.019531 35.484375 12.019531 35.484375 C 12.019531 35.484375 12.027344 35.464844 12.027344 35.464844 Z M 8.035156 12.035156 C 8.035156 9.875 9.824219 8.125 12.03125 8.125 C 14.242188 8.125 16.03125 9.875 16.03125 12.035156 C 16.03125 14.195312 14.234375 15.941406 12.027344 15.941406 C 9.824219 15.941406 8.035156 14.195312 8.035156 12.035156 Z M 8.035156 12.035156 "/>
</g>
</svg>
